<?xml version="1.0" standalone="no"?>
<!DOCTYPE svg PUBLIC "-//W3C//DTD SVG 20010904//EN"
 "http://www.w3.org/TR/2001/REC-SVG-20010904/DTD/svg10.dtd">
<svg version="1.0" xmlns="http://www.w3.org/2000/svg"
 width="230.000000pt" height="214.000000pt" viewBox="0 0 230.000000 214.000000"
 preserveAspectRatio="xMidYMid meet">
<metadata>
Created by potrace 1.15, written by Peter Selinger 2001-2017
</metadata>
<g transform="translate(0.000000,214.000000) scale(0.100000,-0.100000)"
fill="#000000" stroke="none">
<path d="M667 1990 c-24 -25 -25 -30 -13 -43 29 -29 47 -94 52 -187 l6 -96
-57 -18 c-56 -17 -56 -18 -49 -49 3 -18 10 -33 15 -35 5 -2 9 -10 9 -17 0 -7
13 -26 30 -42 30 -28 30 -28 26 -122 l-4 -94 45 -48 c25 -27 50 -49 56 -49 6
0 30 -9 53 -21 24 -11 53 -20 66 -21 13 0 36 -5 52 -11 22 -8 35 -7 60 5 33
17 170 61 196 64 38 4 100 26 107 38 11 18 51 38 63 31 6 -3 10 -1 10 5 0 6 5
8 10 5 6 -4 9 -1 8 5 -2 7 25 23 60 35 35 13 74 31 88 40 13 8 24 13 24 10 0
-3 18 4 40 15 28 14 40 17 40 8 0 -7 8 -4 18 8 9 12 25 24 35 27 37 13 3 135
-43 151 -8 3 -29 15 -47 25 -27 17 -81 36 -133 46 -8 2 -17 4 -20 6 -3 1 -9 3
-15 4 -5 0 -32 5 -59 9 -27 4 -67 9 -89 12 -28 2 -50 13 -72 34 -17 16 -35 30
-39 30 -4 0 -26 16 -49 35 -22 19 -48 35 -57 35 -8 0 -26 7 -38 16 -12 8 -53
26 -90 39 -113 40 -182 74 -182 90 0 8 -9 15 -20 15 -11 0 -20 5 -20 12 0 6
-3 8 -7 5 -3 -4 -14 0 -23 8 -14 13 -19 11 -43 -15z m343 -215 c73 -15 180
-59 180 -75 0 -6 -32 -10 -77 -11 -43 0 -130 -2 -194 -5 l-117 -6 -3 39 c-8
82 -7 84 74 77 40 -3 101 -12 137 -19z m445 -207 c22 -6 45 -11 50 -13 46 -10
80 -30 80 -46 0 -15 -75 -74 -132 -104 -88 -46 -118 -84 -50 -64 51 15 65 10
27 -10 -19 -11 -39 -17 -44 -14 -4 3 -11 2 -15 -3 -12 -17 -70 -33 -77 -22 -4
7 -14 1 -25 -13 -13 -17 -19 -20 -19 -9 0 9 5 21 12 28 16 16 8 15 -33 -3 -19
-8 -28 -14 -21 -15 18 0 4 -20 -14 -20 -8 0 -12 5 -9 10 10 16 -15 12 -61 -12
-24 -11 -41 -25 -38 -29 3 -5 -1 -6 -9 -3 -7 2 -25 0 -40 -5 -18 -7 -28 -7
-33 0 -3 6 -18 9 -33 6 -20 -4 -30 1 -44 19 -10 13 -13 24 -7 24 15 0 12 30
-5 36 -17 7 -3 36 35 70 39 35 16 40 -58 11 -37 -15 -72 -27 -79 -27 -13 0
-28 129 -16 140 4 5 28 11 53 15 25 4 65 11 90 16 25 5 72 14 105 20 33 6 78
14 100 19 58 11 263 11 310 -2z"/>
<path d="M1330 962 c-144 -2 -190 -10 -130 -22 61 -13 -60 -12 -202 1 -97 9
-152 9 -234 0 -60 -7 -114 -16 -121 -20 -12 -6 460 -31 919 -48 l167 -6 6 37
c4 20 4 40 0 44 -9 9 -238 18 -405 14z"/>
</g>
</svg>
